<svg xmlns="http://www.w3.org/2000/svg" viewBox="0 0 64 64">
  <defs>
    <radialGradient id="g" cx="50%" cy="50%" r="50%">
      <stop offset="0%" stop-color="#E36A8A"/>
      <stop offset="60%" stop-color="#B4264A"/>
      <stop offset="100%" stop-color="#2A1840"/>
    </radialGradient>
  </defs>
  <rect width="64" height="64" rx="14" fill="#0E0814"/>
  <circle cx="32" cy="32" r="22" fill="none" stroke="#9D74D9" stroke-opacity="0.55" stroke-width="1"/>
  <g transform="translate(32 32)">
    <g>
      <path d="M0 -20 C 4 -8, 4 -4, 0 0 C -4 -4, -4 -8, 0 -20 Z" fill="url(#g)" opacity="0.85"/>
      <path d="M0 -20 C 4 -8, 4 -4, 0 0 C -4 -4, -4 -8, 0 -20 Z" fill="url(#g)" opacity="0.85" transform="rotate(60)"/>
      <path d="M0 -20 C 4 -8, 4 -4, 0 0 C -4 -4, -4 -8, 0 -20 Z" fill="url(#g)" opacity="0.85" transform="rotate(120)"/>
      <path d="M0 -20 C 4 -8, 4 -4, 0 0 C -4 -4, -4 -8, 0 -20 Z" fill="url(#g)" opacity="0.85" transform="rotate(180)"/>
      <path d="M0 -20 C 4 -8, 4 -4, 0 0 C -4 -4, -4 -8, 0 -20 Z" fill="url(#g)" opacity="0.85" transform="rotate(240)"/>
      <path d="M0 -20 C 4 -8, 4 -4, 0 0 C -4 -4, -4 -8, 0 -20 Z" fill="url(#g)" opacity="0.85" transform="rotate(300)"/>
    </g>
    <circle r="6" fill="#F1E4EC" opacity="0.9"/>
    <circle r="2.5" fill="#B4264A"/>
  </g>
</svg>
